<mxfile host="app.diagrams.net" modified="2022-02-10T02:25:41.455Z" agent="5.0 (X11; Linux x86_64) AppleWebKit/537.36 (KHTML, like Gecko) Chrome/98.0.4758.80 Safari/537.36" etag="xUXcO6pWF_rel2iGynNf" version="16.1.0" type="github">
  <diagram id="3228e29e-7158-1315-38df-8450db1d8a1d" name="Page-1">
    <mxGraphModel dx="1672" dy="939" grid="1" gridSize="10" guides="1" tooltips="1" connect="1" arrows="1" fold="1" page="1" pageScale="1" pageWidth="1169" pageHeight="827" background="#F1FAEE" math="0" shadow="0">
      <root>
        <mxCell id="0" />
        <mxCell id="1" parent="0" />
        <mxCell id="MM5QcYv-WwZt81QImvIx-21550" style="edgeStyle=orthogonalEdgeStyle;sketch=1;orthogonalLoop=1;jettySize=auto;html=1;entryX=0;entryY=0.5;entryDx=0;entryDy=0;fontColor=#1D3557;strokeColor=#457B9D;fillColor=#A8DADC;" edge="1" parent="1" source="MM5QcYv-WwZt81QImvIx-21541" target="MM5QcYv-WwZt81QImvIx-21549">
          <mxGeometry relative="1" as="geometry" />
        </mxCell>
        <mxCell id="MM5QcYv-WwZt81QImvIx-21541" value="openapi(swagger)" style="swimlane;strokeColor=#457B9D;fillColor=#A8DADC;fontColor=#1D3557;rounded=0;sketch=1;" vertex="1" parent="1">
          <mxGeometry x="10" y="60" width="170" height="450" as="geometry" />
        </mxCell>
        <mxCell id="MM5QcYv-WwZt81QImvIx-21544" value="列表接口&#xa;入参：搜索参数&#xa;输出：列表数据、分页&#xa;以 list 结尾" style="text;strokeColor=none;fillColor=none;align=left;verticalAlign=top;spacingLeft=4;spacingRight=4;overflow=hidden;rotatable=0;points=[[0,0.5],[1,0.5]];portConstraint=eastwest;fontColor=#1D3557;rounded=0;sketch=1;" vertex="1" parent="MM5QcYv-WwZt81QImvIx-21541">
          <mxGeometry x="15" y="50" width="135" height="70" as="geometry" />
        </mxCell>
        <mxCell id="MM5QcYv-WwZt81QImvIx-21546" value="添加接口&#xa;入参：表单数据&#xa;输出：添加成功 / 失败原因&#xa;以 create 结尾" style="text;strokeColor=none;fillColor=none;align=left;verticalAlign=top;spacingLeft=4;spacingRight=4;overflow=hidden;rotatable=0;points=[[0,0.5],[1,0.5]];portConstraint=eastwest;fontColor=#1D3557;rounded=0;sketch=1;" vertex="1" parent="MM5QcYv-WwZt81QImvIx-21541">
          <mxGeometry x="15" y="160" width="135" height="80" as="geometry" />
        </mxCell>
        <mxCell id="MM5QcYv-WwZt81QImvIx-21547" value="更新接口&#xa;入参：表单数据&#xa;输出：更新成功 / 失败原因&#xa;以 update 结尾" style="text;strokeColor=none;fillColor=none;align=left;verticalAlign=top;spacingLeft=4;spacingRight=4;overflow=hidden;rotatable=0;points=[[0,0.5],[1,0.5]];portConstraint=eastwest;fontColor=#1D3557;rounded=0;sketch=1;" vertex="1" parent="MM5QcYv-WwZt81QImvIx-21541">
          <mxGeometry x="15" y="260" width="135" height="70" as="geometry" />
        </mxCell>
        <mxCell id="MM5QcYv-WwZt81QImvIx-21548" value="批量删除接口&#xa;入参：主键数组&#xa;输出：删除成功 / 失败原因&#xa;以 delete 结尾" style="text;strokeColor=none;fillColor=none;align=left;verticalAlign=top;spacingLeft=4;spacingRight=4;overflow=hidden;rotatable=0;points=[[0,0.5],[1,0.5]];portConstraint=eastwest;fontColor=#1D3557;rounded=0;sketch=1;" vertex="1" parent="MM5QcYv-WwZt81QImvIx-21541">
          <mxGeometry x="17.5" y="370" width="135" height="71" as="geometry" />
        </mxCell>
        <mxCell id="MM5QcYv-WwZt81QImvIx-21554" value="" style="edgeStyle=orthogonalEdgeStyle;sketch=1;orthogonalLoop=1;jettySize=auto;html=1;fontColor=#1D3557;strokeColor=#457B9D;fillColor=#A8DADC;" edge="1" parent="1" source="MM5QcYv-WwZt81QImvIx-21549" target="MM5QcYv-WwZt81QImvIx-21553">
          <mxGeometry relative="1" as="geometry" />
        </mxCell>
        <mxCell id="MM5QcYv-WwZt81QImvIx-21549" value="抓取数据定义&lt;br&gt;生成针对该实体的元数据 json" style="shape=process;whiteSpace=wrap;html=1;backgroundOutline=1;sketch=1;fontColor=#1D3557;strokeColor=#457B9D;fillColor=#A8DADC;" vertex="1" parent="1">
          <mxGeometry x="250" y="255" width="120" height="60" as="geometry" />
        </mxCell>
        <mxCell id="MM5QcYv-WwZt81QImvIx-21556" value="" style="edgeStyle=orthogonalEdgeStyle;sketch=1;orthogonalLoop=1;jettySize=auto;html=1;fontColor=#1D3557;strokeColor=#457B9D;fillColor=#A8DADC;" edge="1" parent="1" source="MM5QcYv-WwZt81QImvIx-21553" target="MM5QcYv-WwZt81QImvIx-21555">
          <mxGeometry relative="1" as="geometry" />
        </mxCell>
        <mxCell id="MM5QcYv-WwZt81QImvIx-21553" value="解析元数据 json" style="shape=process;whiteSpace=wrap;html=1;backgroundOutline=1;sketch=1;fontColor=#1D3557;strokeColor=#457B9D;fillColor=#A8DADC;" vertex="1" parent="1">
          <mxGeometry x="450" y="255" width="120" height="60" as="geometry" />
        </mxCell>
        <mxCell id="MM5QcYv-WwZt81QImvIx-21555" value="通用（仅一套）页面&lt;br&gt;运行时渲染" style="ellipse;whiteSpace=wrap;html=1;fillColor=#A8DADC;strokeColor=#457B9D;fontColor=#1D3557;sketch=1;" vertex="1" parent="1">
          <mxGeometry x="650" y="255" width="120" height="60" as="geometry" />
        </mxCell>
      </root>
    </mxGraphModel>
  </diagram>
</mxfile>
